<?xml version="1.0" encoding="utf-8"?>
<!-- Generator: Adobe Illustrator 26.0.3, SVG Export Plug-In . SVG Version: 6.00 Build 0)  -->
<!DOCTYPE svg PUBLIC "-//W3C//DTD SVG 1.1//EN" "http://www.w3.org/Graphics/SVG/1.1/DTD/svg11.dtd" [
	<!ENTITY ns_extend "http://ns.adobe.com/Extensibility/1.0/">
	<!ENTITY ns_ai "http://ns.adobe.com/AdobeIllustrator/10.0/">
	<!ENTITY ns_graphs "http://ns.adobe.com/Graphs/1.0/">
	<!ENTITY ns_vars "http://ns.adobe.com/Variables/1.0/">
	<!ENTITY ns_imrep "http://ns.adobe.com/ImageReplacement/1.0/">
	<!ENTITY ns_sfw "http://ns.adobe.com/SaveForWeb/1.0/">
	<!ENTITY ns_custom "http://ns.adobe.com/GenericCustomNamespace/1.0/">
	<!ENTITY ns_adobe_xpath "http://ns.adobe.com/XPath/1.0/">
]>
<svg version="1.1" id="Layer_1" xmlns:x="&ns_extend;" xmlns:i="&ns_ai;" xmlns:graph="&ns_graphs;"
	 xmlns="http://www.w3.org/2000/svg" xmlns:xlink="http://www.w3.org/1999/xlink" x="0px" y="0px" viewBox="0 0 320 60"
	 style="enable-background:new 0 0 320 60;" xml:space="preserve">
<style type="text/css">
	.st0{clip-path:url(#SVGID_00000176016434022438203830000017243147961449513371_);fill:#001231;}
	.st1{clip-path:url(#SVGID_00000176016434022438203830000017243147961449513371_);fill:#FABC96;}
	.st2{clip-path:url(#SVGID_00000176016434022438203830000017243147961449513371_);fill:#808BA0;}
	.st3{clip-path:url(#SVGID_00000176016434022438203830000017243147961449513371_);fill:#F16322;}
</style>
<metadata>
	<sfw  xmlns="&ns_sfw;">
		<slices></slices>
		<sliceSourceBounds  bottomLeftOrigin="true" height="56.9561157" width="315.9439697" x="2.0284958" y="-58.4779968">
			</sliceSourceBounds>
	</sfw>
</metadata>
<g>
	<defs>
		<rect id="SVGID_1_" x="2.0284958" y="1.5220032" width="315.9429932" height="56.9559937"/>
	</defs>
	<clipPath id="SVGID_00000060742065565307968940000017222506837394046887_">
		<use xlink:href="#SVGID_1_"  style="overflow:visible;"/>
	</clipPath>
	<path style="clip-path:url(#SVGID_00000060742065565307968940000017222506837394046887_);fill:#001231;" d="
		M139.9983826,34.9277954c-1.2960205,4.4990234-4.678009,6.9820251-9.6460266,6.9820251
		c-6.7669907,0-10.2939682-4.5350037-10.2939682-13.3900146c0-8.7099915,3.8869934-13.5329895,10.5819931-13.5329895
		c4.7149963,0,7.8099976,2.4109802,8.8190002,6.8389893l-4.5360107,1.1159973
		c-0.6470032-2.519989-2.1950073-3.815979-4.5710144-3.815979c-3.5629807,0-5.2909775,3.1319885-5.2909775,9.4309998
		c0,6.04599,1.6549988,8.9979858,5.3989792,8.9979858c2.4110107,0,4.3190002-1.4750061,5.0030212-3.8869934L139.9983826,34.9277954z
		"/>
	
		<rect x="143.3484802" y="15.3110046" style="clip-path:url(#SVGID_00000060742065565307968940000017222506837394046887_);fill:#001231;" width="4.4630127" height="26.1679993"/>
	<path style="clip-path:url(#SVGID_00000060742065565307968940000017222506837394046887_);fill:#001231;" d="
		M159.1522827,41.8371277c-5.0039978,0-7.9909973-3.5620117-7.9909973-9.7530212
		c0-6.2630005,3.0230103-9.8269958,7.9179993-9.8269958c4.8959961,0,7.8110046,3.4559937,7.8110046,9.5750122
		c0,0.3240051-0.0350037,0.6479797-0.0350037,0.9709778h-11.303009c0.0360107,3.5640259,1.3670044,5.3640137,3.9949951,5.3640137
		c1.6920166,0,2.8080139-0.756012,3.8520203-2.4110107l3.2739868,2.0150146
		C165.2342834,40.4341125,162.64328,41.8371277,159.1522827,41.8371277 M162.4992981,29.6000977
		c0-2.519989-1.2960205-3.9949951-3.4200134-3.9949951c-2.0150146,0-3.2749939,1.4400024-3.4559937,3.9949951H162.4992981z"/>
	<path style="clip-path:url(#SVGID_00000060742065565307968940000017222506837394046887_);fill:#001231;" d="
		M170.3114014,22.6174927h4.1029968V24.8125c1.4759827-1.6900024,3.2030029-2.5549927,5.3280029-2.5549927
		c2.2309875,0,3.7059937,0.8989868,4.6429749,2.8070068c1.9070129-1.90802,3.7070007-2.8070068,6.0820007-2.8070068
		c3.132019,0,5.0390015,1.8359985,5.0390015,4.7879944v14.4330139h-4.4620056V28.4844971
		c0-1.6199951-0.7199707-2.5549927-2.0519714-2.5549927c-1.3680115,0-2.7000122,0.6470032-3.960022,1.9429932v13.6060181h-4.3549805
		V28.9884949c0-2.0509949-0.5760193-3.0229797-1.9430237-3.0229797c-1.4759827,0-2.9169922,0.6829834-3.9960022,1.9429932
		v13.5700073h-4.4269714V22.6174927z"/>
	<path style="clip-path:url(#SVGID_00000060742065565307968940000017222506837394046887_);fill:#001231;" d="M201.4487,35.6838989
		c1.4039917,1.7980042,2.7709961,2.6990051,4.3199768,2.6990051c1.6549988,0,2.6270142-0.8280029,2.6270142-2.0879822
		c0-1.5469971-1.3320007-1.90802-3.4559937-2.6990051c-3.8870239-1.4769897-5.9020081-2.6990051-5.9020081-5.8320007
		c0-3.131012,2.5549927-5.506012,6.4779968-5.506012c2.6289978,0,4.6440125,0.9360046,6.3710022,2.8800049l-2.8070068,2.4460144
		c-1.1879883-1.2590027-2.375-1.90802-3.67099-1.90802c-1.5480042,0-2.4120178,0.757019-2.4120178,1.8730164
		c0,1.2599792,1.5469971,1.5839844,4.2120056,2.6269836c3.45401,1.3320007,5.1820068,2.6280212,5.1820068,5.9040222
		c0,3.4899902-2.5920105,5.7949829-6.5870056,5.7949829c-3.1309814,0-5.3989868-1.1889954-7.3779907-3.8160095L201.4487,35.6838989z
		"/>
	<path style="clip-path:url(#SVGID_00000060742065565307968940000017222506837394046887_);fill:#001231;" d="
		M222.5437012,22.2576904c5.0389709,0,8.0619812,3.6000061,8.0619812,9.7910156
		c0,6.1889954-3.0599976,9.7890015-8.0619812,9.7890015c-5.0040283,0-8.0630188-3.6350098-8.0630188-9.7890015
		C214.4806824,25.8576965,217.5036926,22.2576904,222.5437012,22.2576904 M222.5437012,38.0236816
		c2.4109802,0,3.5629883-1.9799805,3.5629883-5.9749756s-1.1520081-5.9400024-3.5629883-5.9400024
		c-2.3760071,0-3.5650024,1.9450073-3.5650024,5.9400024S220.1676941,38.0236816,222.5437012,38.0236816"/>
	<path style="clip-path:url(#SVGID_00000060742065565307968940000017222506837394046887_);fill:#001231;" d="
		M233.9914856,22.6174927h4.1029968v2.2320251c2.0879822-1.6930237,3.743988-2.5920105,5.8309937-2.5920105
		c3.4909973,0,5.2909851,2.0509949,5.2909851,6.118988v13.1020203h-4.4629822V29.240509
		c0-2.303009-0.5400085-3.3470154-2.1600037-3.3470154c-1.3320007,0-2.6620178,0.6830139-4.1750183,2.0880127v13.4970093h-4.4269714
		V22.6174927z"/>
	<polygon style="clip-path:url(#SVGID_00000060742065565307968940000017222506837394046887_);fill:#001231;" points="
		265.4537964,15.3106079 282.4427795,15.3106079 282.4427795,19.5566101 270.3487854,19.5566101 270.3487854,25.7476196 
		279.1667786,25.7476196 279.1667786,29.9246216 270.3487854,29.9246216 270.3487854,37.015625 282.9837952,37.015625 
		282.9837952,41.4776306 265.4537964,41.4776306 	"/>
	<path style="clip-path:url(#SVGID_00000060742065565307968940000017222506837394046887_);fill:#001231;" d="
		M284.2078857,22.6174927h4.4629822l4.1400146,12.3830261l3.8519897-12.3830261h4.355011l-5.9040222,17.8170166
		c-1.7630005,5.2909851-2.914978,7.8840027-7.6289978,7.8840027c-0.7219849,0-1.368988-0.1100159-1.9809875-0.2900085v-3.7070007
		c0.6119995,0.1450195,1.2250061,0.2160034,1.8359985,0.2160034c2.0149841,0,2.9880066-1.07901,3.4920044-3.5629883
		L284.2078857,22.6174927z"/>
	<path style="clip-path:url(#SVGID_00000060742065565307968940000017222506837394046887_);fill:#001231;" d="
		M310.2334595,41.8371277c-5.0029907,0-7.9899902-3.5620117-7.9899902-9.7530212
		c0-6.2630005,3.0230103-9.8269958,7.9179993-9.8269958c4.8959961,0,7.8110046,3.4559937,7.8110046,9.5750122
		c0,0.3240051-0.0360107,0.6479797-0.0360107,0.9709778h-11.302002c0.0360107,3.5640259,1.3670044,5.3640137,3.9949951,5.3640137
		c1.6920166,0,2.8080139-0.756012,3.8520203-2.4110107l3.2739868,2.0150146
		C316.3164673,40.4341125,313.7254639,41.8371277,310.2334595,41.8371277 M313.5814819,29.6000977
		c0-2.519989-1.2960205-3.9949951-3.4200134-3.9949951c-2.0159912,0-3.2749939,1.4400024-3.4559937,3.9949951H313.5814819z"/>
	<path style="clip-path:url(#SVGID_00000060742065565307968940000017222506837394046887_);fill:#FABC96;" d="M51.547493,1.5218811
		c-4.4190063,0.0920105-8.7200012,0.6650085-12.8530121,1.6690063l8.3440094,54.8699951
		c4.3499908,0.4170227,8.7429962,0.3610229,13.0800018-0.1689758L51.547493,1.5218811z"/>
	<path style="clip-path:url(#SVGID_00000060742065565307968940000017222506837394046887_);fill:#808BA0;" d="M69.4505997,55.9788818
		c4.4109955-1.2809753,8.6089935-3.0589905,12.5329895-5.2679749L78.03759,7.1018982
		c-4.2229919-1.9779968-8.7169952-3.4760132-13.4100037-4.42099L69.4505997,55.9788818z"/>
	<path style="clip-path:url(#SVGID_00000060742065565307968940000017222506837394046887_);fill:#808BA0;" d="M103.5819931,29.922699
		c-1.9790039,3.2200012-4.256012,6.2360229-6.7930145,9.0130005l-1.8009949-19.9139709
		C98.254982,22.3007202,101.1449814,25.9577026,103.5819931,29.922699"/>
	<path style="clip-path:url(#SVGID_00000060742065565307968940000017222506837394046887_);fill:#FABC96;" d="M33.5340958,55.1499023
		c-4.8930054-1.6719971-9.4980011-3.9639893-13.7230072-6.7809753l-3.7279968-34.1930237
		c3.6799927-2.8859863,7.7079926-5.348999,12.0110016-7.3139954c0.2029877,0.5200195,0.3430023,1.0760193,0.4059906,1.65802
		C28.5000839,8.519928,33.5380936,54.8849182,33.5340958,55.1499023"/>
	<path style="clip-path:url(#SVGID_00000060742065565307968940000017222506837394046887_);fill:#F16322;" d="M50.1935959,1.5653076
		c-4.9380035,0.2130127-9.7210083,1.0280151-14.276001,2.3730164L21.915596,49.7093201
		c3.7079926,2.2529907,7.6799927,4.1130066,11.8609924,5.5220032L50.1935959,1.5653076z"/>
	<path style="clip-path:url(#SVGID_00000060742065565307968940000017222506837394046887_);fill:#001231;" d="M96.5134964,20.6119995
		c-3.4330139-3.7069702-7.3300018-6.9759827-11.6010132-9.7159729L78.3414841,52.598999
		c5.3339996-2.5359802,10.2870026-5.8739929,14.6460114-9.8599854
		C93.4834824,40.2960205,96.3624954,21.585022,96.5134964,20.6119995"/>
	<path style="clip-path:url(#SVGID_00000060742065565307968940000017222506837394046887_);fill:#F16322;" d="M27.3915024,12.901001
		L9.1674881,39.309021c-2.6749878-2.8789978-5.0699921-6.0220032-7.1389923-9.3869934
		C8.2064896,19.8740234,17.2835007,11.7990112,28.0944901,6.86203C28.8484879,8.7970276,28.6604996,11.0610046,27.3915024,12.901001
		"/>
	<path style="clip-path:url(#SVGID_00000060742065565307968940000017222506837394046887_);fill:#001231;" d="M73.4235916,5.1749878
		c-4.0240021-1.4849854-8.2520142-2.5489807-12.631012-3.1359863l-8.4879913,56.2950134
		c4.4720001,0.0369873,8.9440002-0.4210205,13.3129883-1.3780212L73.4235916,5.1749878z"/>
</g>
</svg>
